# xmcd
#
# Track frame offsets:
#	150
#	11577
#	27269
#	38623
#	51584
#	65558
#	77684
#	91034
#	103826
#	112998
#
# Disc length: 1658 seconds
#
# Revision: 1
# Processed by: cddbd v1.5.2PL0 Copyright (c) Steve Scherf et al.
# Submitted via: audiograbber 1.83.01
#
DISCID=7606780a
DTITLE=Mel Tillis - Heart Healer
DYEAR=1977
DGENRE=Country
TTITLE0=Heart Healer
TTITLE1=Wedding Bells
TTITLE2=Play It Again, Sam
TTITLE3=Someone Else Tends The Garden
TTITLE4=The Morning After Baby Let Me Down
TTITLE5=Burning Memories
TTITLE6=Golden Nugget Gambling Casino
TTITLE7=I Want To Feel This Way Forever
TTITLE8=Everyone Needs Someone
TTITLE9=It's Just Not That Easy To Say
EXTD=
EXTT0=
EXTT1=
EXTT2=
EXTT3=
EXTT4=
EXTT5=
EXTT6=
EXTT7=
EXTT8=
EXTT9=
PLAYORDER=
